<?xml version="1.0" encoding="UTF-8" standalone="no"?><!DOCTYPE svg PUBLIC "-//W3C//DTD SVG 1.1//EN" "http://www.w3.org/Graphics/SVG/1.1/DTD/svg11.dtd"><svg width="100%" height="100%" viewBox="0 0 142 142" version="1.1" xmlns="http://www.w3.org/2000/svg" xmlns:xlink="http://www.w3.org/1999/xlink" xml:space="preserve" xmlns:serif="http://www.serif.com/" style="fill-rule:evenodd;clip-rule:evenodd;stroke-linecap:round;stroke-linejoin:round;"><path d="M100.31,99.499l-15.071,-43.37l-18.495,32.446l-11.562,-16.223l-13.389,27.298" style="fill:none;stroke:#000;stroke-width:5.41px;"/><circle cx="60.184" cy="54.777" r="5.408" style="fill:none;stroke:#000;stroke-width:5.41px;"/><path d="M14.218,41.257c-2.966,0 -5.407,-2.441 -5.407,-5.408l0,-5.407c0,-2.967 2.441,-5.408 5.407,-5.408l97.34,0c2.967,0 5.408,2.441 5.408,5.408l0,70.301l10.816,0c2.966,0 5.407,2.441 5.407,5.408l0,5.407c0,2.967 -2.441,5.408 -5.407,5.408l-10.816,0l0,10.816c0,2.966 -2.441,5.407 -5.408,5.407l-5.407,0c-2.967,0 -5.408,-2.441 -5.408,-5.407l0,-10.816l-70.301,0c-2.967,0 -5.408,-2.441 -5.408,-5.408l0,-70.301l-10.816,0Z" style="fill:none;stroke:#000;stroke-width:5.41px;"/></svg>